<?xml version="1.0" encoding="UTF-8" standalone="no"?>
<!DOCTYPE svg PUBLIC "-//W3C//DTD SVG 1.1//EN" "http://www.w3.org/Graphics/SVG/1.1/DTD/svg11.dtd">
<!-- Created with Vectornator (http://vectornator.io/) -->
<svg height="122.0pt" stroke-miterlimit="10" style="fill-rule:nonzero;clip-rule:evenodd;stroke-linecap:round;stroke-linejoin:round;" version="1.1" viewBox="0 0 288 122" width="288.0pt" xml:space="preserve" xmlns="http://www.w3.org/2000/svg" xmlns:xlink="http://www.w3.org/1999/xlink">
<defs/>
<g id="surface1">
<path d="M28.9141 64.3828L37.1602 64.3828L37.1602 93.5625L48.543 93.5625L47.7734 100.258L28.9141 100.258L28.9141 64.3828Z" fill="#78e110" fill-rule="nonzero" opacity="1" stroke="none"/>
<path d="M60.7031 100.258L52.457 100.258L52.457 64.3828L60.7031 64.3828L60.7031 100.258Z" fill="#78e110" fill-rule="nonzero" opacity="1" stroke="none"/>
<path d="M88.5273 88.7656C88.5273 83.1914 88.6133 75.7695 88.7188 71.4414L88.4844 71.4414C87.4297 78.9219 85.9375 91.0508 84.3203 100.258L77.6602 100.258C76.4023 90.6797 74.9141 78.6094 73.9258 71.3516L73.6562 71.3516C73.832 75.5703 73.9922 82.8203 73.9922 89.0352L73.9922 100.258L66.7422 100.258L66.7422 64.3828L78.3438 64.3828C79.5234 71.8672 80.7031 80.875 81.2461 85.9023L81.4062 85.9023C82.0977 80.5625 83.4453 72.7695 84.7969 64.3828L96.2812 64.3828L96.2812 100.258L88.5273 100.258L88.5273 88.7656Z" fill="#78e110" fill-rule="nonzero" opacity="1" stroke="none"/>
<path d="M121.148 85.0508L110.285 85.0508L110.285 93.6016L122.586 93.6016L121.621 100.258L102.203 100.258L102.203 64.3828L121.645 64.3828L121.645 71.125L110.285 71.125L110.285 78.3398L121.148 78.3398L121.148 85.0508Z" fill="#78e110" fill-rule="nonzero" opacity="1" stroke="none"/>
<path d="M126.375 64.3828L134.621 64.3828L134.621 77.9414L140.836 77.9414L140.836 64.3828L149.117 64.3828L149.117 100.258L140.836 100.258L140.836 84.875L134.621 84.875L134.621 100.258L126.375 100.258L126.375 64.3828Z" fill="#78e110" fill-rule="nonzero" opacity="1" stroke="none"/>
<path d="M162.984 81.9102C162.984 90.7695 163.785 94.4531 166.613 94.4531C169.598 94.4531 170.277 91.0273 170.277 81.9102C170.277 73.3984 169.562 70.2344 166.613 70.2344C163.77 70.2344 162.984 73.5508 162.984 81.9102M178.883 82.0938C178.883 95.2383 175.297 100.93 166.379 100.93C158.066 100.93 154.375 95.1445 154.375 81.9102C154.375 69.1992 158.48 63.7227 166.715 63.7227C175.172 63.7227 178.883 69.6094 178.883 82.0938" fill="#78e110" fill-rule="nonzero" opacity="1" stroke="none"/>
<path d="M191.992 64.3828L191.992 89.5C191.992 91.8359 192.48 94.4727 195.395 94.4727C198.203 94.4727 198.723 92.1992 198.723 89.5352L198.723 64.3828L207.004 64.3828L207.004 89.2695C207.004 96.5742 203.43 100.93 195.215 100.93C186.898 100.93 183.746 96.6133 183.746 89.1953L183.746 64.3828L191.992 64.3828Z" fill="#78e110" fill-rule="nonzero" opacity="1" stroke="none"/>
<path d="M218.965 89.8711C219.168 92.8164 220.008 94.8438 222.473 94.8438C224.867 94.8438 225.633 93.2344 225.633 91.1953C225.633 88.7109 224.387 87.25 220.164 85.0898C213.934 81.8711 211.578 79.1562 211.578 73.8828C211.578 67.7461 215.328 63.7227 222.438 63.7227C230.797 63.7227 233.188 68.9453 233.258 74.4531L225.32 74.4531C225.184 71.957 224.73 69.8086 222.387 69.8086C220.555 69.8086 219.73 70.9961 219.73 73C219.73 75.0547 220.535 76.1133 224.434 78.0664C231.086 81.4141 233.91 84.2422 233.91 90.2773C233.91 96.207 230.441 100.93 222.391 100.93C213.664 100.93 211.004 95.9609 210.828 89.8711L218.965 89.8711Z" fill="#78e110" fill-rule="nonzero" opacity="1" stroke="none"/>
<path d="M257.652 85.0508L246.789 85.0508L246.789 93.6016L259.086 93.6016L258.125 100.258L238.707 100.258L238.707 64.3828L258.145 64.3828L258.145 71.125L246.789 71.125L246.789 78.3398L257.652 78.3398L257.652 85.0508Z" fill="#78e110" fill-rule="nonzero" opacity="1" stroke="none"/>
<path d="M28.9805 21.7266L47.7266 21.7266L48.3984 28.4531L37.1523 28.4531L37.1523 36.1836L47.6875 36.1836L47.6875 42.8594L37.1523 42.8594L37.1523 57.6055L28.9805 57.6055L28.9805 21.7266Z" fill="#78e110" fill-rule="nonzero" opacity="1" stroke="none"/>
<path d="M60.7305 36.75L62.6367 36.75C65.7227 36.75 66.9102 35.6367 66.9102 32.1289C66.9102 29.1758 65.8672 27.8828 63.1602 27.8828L60.7305 27.8828L60.7305 36.75ZM60.7109 42.9258L60.7109 57.6055L52.5742 57.6055L52.5742 21.7266L64.6914 21.7266C71.6094 21.7266 75.1367 25.1641 75.1367 31.6641C75.1367 36.6289 72.6953 38.9531 70.5352 39.8086C73.3398 41.0625 74.6641 43.3672 74.6641 48.5312L74.6641 49.7773C74.6641 53.7656 74.8242 56.0273 75.0508 57.6055L67.0508 57.6055C66.6328 56.2188 66.4883 53.0273 66.4883 49.5195L66.4883 48.2852C66.4883 44.043 65.6367 42.9258 62.4844 42.9258L60.7109 42.9258Z" fill="#78e110" fill-rule="nonzero" opacity="1" stroke="none"/>
<path d="M88.3516 57.6055L80.1094 57.6055L80.1094 21.7266L88.3516 21.7266L88.3516 57.6055Z" fill="#78e110" fill-rule="nonzero" opacity="1" stroke="none"/>
<path d="M113.105 42.3984L102.246 42.3984L102.246 50.9492L114.543 50.9492L113.578 57.6055L94.1602 57.6055L94.1602 21.7266L113.602 21.7266L113.602 28.4727L102.246 28.4727L102.246 35.6875L113.105 35.6875L113.105 42.3984Z" fill="#78e110" fill-rule="nonzero" opacity="1" stroke="none"/>
<path d="M118.176 57.6055L118.176 21.7266L127.195 21.7266C132.648 38.6367 133.918 42.7031 134.285 44.3398L134.43 44.3398C134.078 39.8281 133.965 33.9141 133.965 28.3125L133.965 21.7266L141.242 21.7266L141.242 57.6055L132.355 57.6055C126.691 38.957 125.625 35.3398 125.219 33.793L125.055 33.793C125.34 38.1055 125.488 44.7539 125.488 50.6211L125.488 57.6055L118.176 57.6055Z" fill="#78e110" fill-rule="nonzero" opacity="1" stroke="none"/>
<path d="M155.324 51.3398L156.852 51.3398C160.688 51.3398 161.812 48.6328 161.812 38.8438C161.812 30.6523 160.801 28.0586 156.906 28.0586L155.324 28.0586L155.324 51.3398ZM147.043 21.7266L157.289 21.7266C166.656 21.7266 170.477 27.043 170.477 38.9766C170.477 51.6836 166.707 57.6055 157 57.6055L147.043 57.6055L147.043 21.7266Z" fill="#78e110" fill-rule="nonzero" opacity="1" stroke="none"/>
<path d="M181.695 47.2188C181.898 50.1641 182.738 52.1914 185.199 52.1914C187.598 52.1914 188.363 50.5781 188.363 48.543C188.363 46.0586 187.113 44.5977 182.895 42.4375C176.664 39.2188 174.309 36.5039 174.309 31.2305C174.309 25.0938 178.059 21.0703 185.164 21.0703C193.527 21.0703 195.918 26.293 195.988 31.8008L188.051 31.8008C187.914 29.3008 187.457 27.1562 185.117 27.1562C183.285 27.1562 182.461 28.3438 182.461 30.3477C182.461 32.4023 183.266 33.4609 187.164 35.4102C193.816 38.7578 196.641 41.5898 196.641 47.625C196.641 53.5547 193.172 58.2773 185.121 58.2773C176.395 58.2773 173.734 53.3086 173.559 47.2188L181.695 47.2188Z" fill="#78e110" fill-rule="nonzero" opacity="1" stroke="none"/>
<path d="M218.672 39.2578C218.672 48.1172 219.469 51.8008 222.297 51.8008C225.285 51.8008 225.961 48.3711 225.961 39.2578C225.961 30.7422 225.25 27.582 222.297 27.582C219.457 27.582 218.672 30.8984 218.672 39.2578M234.57 39.4375C234.57 52.5859 230.98 58.2773 222.062 58.2773C213.75 58.2773 210.062 52.4922 210.062 39.2578C210.062 26.5469 214.164 21.0664 222.402 21.0664C230.859 21.0664 234.57 26.957 234.57 39.4375" fill="#78e110" fill-rule="nonzero" opacity="1" stroke="none"/>
<path d="M239.668 21.7266L259.086 21.7266L259.086 28.4531L247.844 28.4531L247.844 36.1836L258.375 36.1836L257.703 42.8594L247.844 42.8594L247.844 57.6055L239.668 57.6055L239.668 21.7266Z" fill="#78e110" fill-rule="nonzero" opacity="1" stroke="none"/>
</g>
</svg>
