<?xml version="1.0" encoding="UTF-8" standalone="no"?>
<!DOCTYPE svg PUBLIC "-//W3C//DTD SVG 1.1//EN" "http://www.w3.org/Graphics/SVG/1.1/DTD/svg11.dtd">
<!-- Created with Vectornator (http://vectornator.io/) -->
<svg height="100%" stroke-miterlimit="10" style="fill-rule:nonzero;clip-rule:evenodd;stroke-linecap:round;stroke-linejoin:round;" version="1.1" viewBox="0 0 913.351 315.989" width="100%" xml:space="preserve" xmlns="http://www.w3.org/2000/svg" xmlns:xlink="http://www.w3.org/1999/xlink">
<defs/>
<clipPath id="ArtboardFrame">
<rect height="315.989" width="913.351" x="0" y="0"/>
</clipPath>
<g clip-path="url(#ArtboardFrame)" id="Layer-1">
<path d="M603.5 2.5C601 3.33333 598.583 4.5 596.25 6C593.917 7.5 591.667 9.33333 589.5 11.5C587.333 13.6667 585.542 15.75 584.125 17.75C582.708 19.75 581.667 21.6667 581 23.5C580.333 25.3333 579.833 27.5833 579.5 30.25C579.167 32.9167 579 36 579 39.5C579 43 579.208 46.1667 579.625 49C580.042 51.8333 580.667 54.3333 581.5 56.5C582.333 58.6667 583.25 60.625 584.25 62.375C585.25 64.125 586.333 65.6667 587.5 67C588.667 68.3333 590.833 70.0833 594 72.25C597.167 74.4167 601.333 77 606.5 80C611.667 83 615.917 85.5833 619.25 87.75C622.583 89.9167 625 91.6667 626.5 93C628 94.3333 629.25 95.5833 630.25 96.75C631.25 97.9167 632 99 632.5 100C633 101 633.375 102.208 633.625 103.625C633.875 105.042 634 106.667 634 108.5C634 110.333 633.833 112 633.5 113.5C633.167 115 632.667 116.333 632 117.5C631.333 118.667 630.292 119.625 628.875 120.375C627.458 121.125 625.667 121.667 623.5 122C621.333 122.333 619.417 122.333 617.75 122C616.083 121.667 614.667 121 613.5 120C612.333 119 611.333 117.667 610.5 116C609.667 114.333 609 112.333 608.5 110C608 107.667 606.333 105.917 603.5 104.75C600.667 103.583 596.667 103 591.5 103L583.75 103L576 103L576 105.75L576 108.5C576 110.333 576.25 112.375 576.75 114.625C577.25 116.875 578 119.333 579 122C580 124.667 581.083 127.042 582.25 129.125C583.417 131.208 584.667 133 586 134.5C587.333 136 589.042 137.417 591.125 138.75C593.208 140.083 595.667 141.333 598.5 142.5C601.333 143.667 604.333 144.583 607.5 145.25C610.667 145.917 614 146.333 617.5 146.5C621 146.667 624.542 146.5 628.125 146C631.708 145.5 635.333 144.667 639 143.5C642.667 142.333 645.875 141 648.625 139.5C651.375 138 653.667 136.333 655.5 134.5C657.333 132.667 658.917 130.708 660.25 128.625C661.583 126.542 662.667 124.333 663.5 122C664.333 119.667 664.958 117.042 665.375 114.125C665.792 111.208 666 108 666 104.5C666 101 665.833 97.875 665.5 95.125C665.167 92.375 664.667 90 664 88C663.333 86 662.417 84 661.25 82C660.083 80 658.667 78 657 76C655.333 74 653.458 72.0833 651.375 70.25C649.292 68.4167 647 66.6667 644.5 65C642 63.3333 639.542 61.8333 637.125 60.5C634.708 59.1667 632.333 58 630 57C627.667 56 625.458 54.875 623.375 53.625C621.292 52.375 619.333 51 617.5 49.5C615.667 48 614.208 46.5833 613.125 45.25C612.042 43.9167 611.333 42.6667 611 41.5C610.667 40.3333 610.458 39.125 610.375 37.875C610.292 36.625 610.333 35.3333 610.5 34C610.667 32.6667 611 31.4167 611.5 30.25C612 29.0833 612.667 28 613.5 27C614.333 26 615.375 25.25 616.625 24.75C617.875 24.25 619.333 24 621 24C622.667 24 624.167 24.3333 625.5 25C626.833 25.6667 628 26.6667 629 28C630 29.3333 630.792 30.75 631.375 32.25C631.958 33.75 632.333 35.3333 632.5 37C632.667 38.6667 634.083 39.9167 636.75 40.75C639.417 41.5833 643.333 42 648.5 42L656.25 42L664 42L664 40L664 38C664 36.6667 663.792 35 663.375 33C662.958 31 662.333 28.6667 661.5 26C660.667 23.3333 659.583 20.8333 658.25 18.5C656.917 16.1667 655.333 14 653.5 12C651.667 10 649.625 8.25 647.375 6.75C645.125 5.25 642.667 4 640 3C637.333 2 634.458 1.25 631.375 0.75C628.292 0.25 625 1.13687e-13 621.5 0C618 0 614.75 0.208333 611.75 0.625C608.75 1.04167 606 1.66667 603.5 2.5ZM748 4.5C744.667 6 741.667 7.875 739 10.125C736.333 12.375 734 15 732 18C730 21 728.25 24.4583 726.75 28.375C725.25 32.2917 724 36.6667 723 41.5C722 46.3333 721.292 51.75 720.875 57.75C720.458 63.75 720.333 70.3333 720.5 77.5C720.667 84.6667 721.042 91 721.625 96.5C722.208 102 723 106.667 724 110.5C725 114.333 726.208 117.875 727.625 121.125C729.042 124.375 730.667 127.333 732.5 130C734.333 132.667 736.375 135 738.625 137C740.875 139 743.333 140.667 746 142C748.667 143.333 751.542 144.375 754.625 145.125C757.708 145.875 761 146.333 764.5 146.5C768 146.667 771.167 146.667 774 146.5C776.833 146.333 779.333 146 781.5 145.5C783.667 145 785.667 144.417 787.5 143.75C789.333 143.083 791 142.333 792.5 141.5C794 140.667 795.417 139.75 796.75 138.75C798.083 137.75 799.333 136.667 800.5 135.5C801.667 134.333 802.833 132.917 804 131.25C805.167 129.583 806.333 127.667 807.5 125.5C808.667 123.333 809.792 120.208 810.875 116.125C811.958 112.042 813 107 814 101C815 95 815.708 89.125 816.125 83.375C816.542 77.625 816.667 72 816.5 66.5C816.333 61 815.917 55.75 815.25 50.75C814.583 45.75 813.667 41 812.5 36.5C811.333 32 809.875 27.9167 808.125 24.25C806.375 20.5833 804.333 17.3333 802 14.5C799.667 11.6667 797.25 9.29167 794.75 7.375C792.25 5.45833 789.667 4 787 3C784.333 2 781.458 1.25 778.375 0.75C775.292 0.25 772 0 768.5 0C765 1.13687e-13 761.542 0.375 758.125 1.125C754.708 1.875 751.333 3 748 4.5ZM2 73L2 108.5L2 144L10 144L18 144L26 144L34 144L34 129.5L34 115L34 100.5L34 86L44.5 86L55 86L65.5 86L76 86L76 79.5L76 73L76 66.5L76 60L65.5 60L55 60L44.5 60L34 60L34 52.25L34 44.5L34 36.75L34 29L45 29L56 29L67 29L78 29L77.5 22.25L77 15.5C76.6667 11 73.3333 7.625 67 5.375C60.6667 3.125 51.3333 2 39 2L20.5 2L2 2L2 37.5L2 73ZM96 73L96 108.5L96 144L103.75 144L111.5 144L119.25 144L127 144L127.25 129.5L127.5 115L127.75 100.5L128 86L131 86L134 86C136 86 137.875 86.25 139.625 86.75C141.375 87.25 143 88 144.5 89C146 90 147.25 92.875 148.25 97.625C149.25 102.375 150 109 150.5 117.5C151 126 152.708 132.417 155.625 136.75C158.542 141.083 162.667 143.333 168 143.5L176 143.75L184 144L183.5 131.5L183 119C182.667 110.667 182.167 103.833 181.5 98.5C180.833 93.1667 180 89.3333 179 87C178 84.6667 176.875 82.7083 175.625 81.125C174.375 79.5417 173 78.3333 171.5 77.5L169.25 76.25L167 75L170.25 72L173.5 69C175.667 67 177.458 65.0417 178.875 63.125C180.292 61.2083 181.333 59.3333 182 57.5C182.667 55.6667 183.167 53.375 183.5 50.625C183.833 47.875 184 44.6667 184 41C184 37.3333 183.792 34.0417 183.375 31.125C182.958 28.2083 182.333 25.6667 181.5 23.5C180.667 21.3333 179.583 19.2917 178.25 17.375C176.917 15.4583 175.333 13.6667 173.5 12C171.667 10.3333 169.792 8.91667 167.875 7.75C165.958 6.58333 164 5.66667 162 5C160 4.33333 156 3.79167 150 3.375C144 2.95833 136 2.66667 126 2.5L111 2.25L96 2L96 37.5L96 73ZM205 73L205 108.5L205 144L213 144L221 144L229 144L237 144L237 108.5L237 73L237 37.5L237 2L229 2L221 2L213 2L205 2L205 37.5L205 73ZM260.5 73L260.25 108.5L260 144L279.25 144L298.5 144C311.333 144 321.125 142.917 327.875 140.75C334.625 138.583 338.333 135.333 339 131L340 124.5L341 118L328.75 118L316.5 118L304.25 118L292 118L292 109.5L292 101L292 92.5L292 84L302.75 84L313.5 84L324.25 84L335 84L335 77.5L335 71C335 66.6667 333.208 63.375 329.625 61.125C326.042 58.875 320.667 57.6667 313.5 57.5C306.333 57.3333 300.958 56.0417 297.375 53.625C293.792 51.2083 292 47.6667 292 43L292 36L292 29L303.25 29L314.5 29L325.75 29L337 29L337 22.25L337 15.5L337 8.75L337 2L318 2L299 2L280 2L261 2L260.75 37.5L260.5 73ZM356 73L356 108.5L356 144L363 144L370 144L377 144L384 144L383.75 120.5L383.5 97L383.25 73.5L383 50L390 73.25L397 96.5C401.667 112 406.667 123.667 412 131.5C417.333 139.333 423 143.333 429 143.5L438 143.75L447 144L447 108.5L447 73L447 37.5L447 2L439.75 2L432.5 2L425.25 2L418 2L418.5 24.5L419 47L419.5 69.5L420 92L413 69.75L406 47.5C401.333 32.6667 396.333 21.5 391 14C385.667 6.5 380 2.66667 374 2.5L365 2.25L356 2L356 37.5L356 73ZM470 73L470 108.5L470 144L482.75 144L495.5 144C504 144 510.958 143.833 516.375 143.5C521.792 143.167 525.667 142.667 528 142C530.333 141.333 532.375 140.667 534.125 140C535.875 139.333 537.333 138.667 538.5 138C539.667 137.333 541.042 136.25 542.625 134.75C544.208 133.25 546 131.333 548 129C550 126.667 551.792 124 553.375 121C554.958 118 556.333 114.667 557.5 111C558.667 107.333 559.625 102.875 560.375 97.625C561.125 92.375 561.667 86.3333 562 79.5C562.333 72.6667 562.333 66.2917 562 60.375C561.667 54.4583 561 49 560 44C559 39 558 34.7917 557 31.375C556 27.9583 555 25.3333 554 23.5C553 21.6667 551.958 20 550.875 18.5C549.792 17 548.667 15.6667 547.5 14.5C546.333 13.3333 544.833 12.1667 543 11C541.167 9.83333 539 8.66667 536.5 7.5C534 6.33333 531.625 5.375 529.375 4.625C527.125 3.875 525 3.33333 523 3C521 2.66667 517.542 2.41667 512.625 2.25C507.708 2.08333 501.333 2 493.5 2L481.75 2L470 2L470 37.5L470 73ZM837 73L837 108.5L837 144L845 144L853 144L861 144L869 144L869 129.5L869 115L869 100.5L869 86L879 86L889 86C895.667 86 900.75 85.1667 904.25 83.5C907.75 81.8333 909.667 79.3333 910 76C910.333 72.6667 910.583 69.9167 910.75 67.75C910.917 65.5833 911 64 911 63L911 61.5L911 60L900.75 60L890.5 60C883.667 60 878.5 58.7083 875 56.125C871.5 53.5417 869.667 49.6667 869.5 44.5L869.25 36.75L869 29L880.25 29L891.5 29L902.75 29L914 29L914 22.25L914 15.5L914 8.75L914 2L894.75 2L875.5 2L856.25 2L837 2L837 37.5L837 73ZM765.875 25.875C767.125 25.4583 768.333 25.3333 769.5 25.5C770.667 25.6667 771.75 25.9583 772.75 26.375C773.75 26.7917 774.667 27.3333 775.5 28C776.333 28.6667 777.167 30.1667 778 32.5C778.833 34.8333 779.667 38 780.5 42C781.333 46 781.875 51.25 782.125 57.75C782.375 64.25 782.333 72 782 81C781.667 90 781.25 97.1667 780.75 102.5C780.25 107.833 779.667 111.333 779 113C778.333 114.667 777.5 116.083 776.5 117.25C775.5 118.417 774.333 119.333 773 120C771.667 120.667 770.375 121.083 769.125 121.25C767.875 121.417 766.667 121.333 765.5 121C764.333 120.667 763.292 120.208 762.375 119.625C761.458 119.042 760.667 118.333 760 117.5C759.333 116.667 758.667 115.25 758 113.25C757.333 111.25 756.667 108.667 756 105.5C755.333 102.333 754.875 97.6667 754.625 91.5C754.375 85.3333 754.333 77.6667 754.5 68.5C754.667 59.3333 754.917 52.0417 755.25 46.625C755.583 41.2083 756 37.6667 756.5 36C757 34.3333 757.708 32.8333 758.625 31.5C759.542 30.1667 760.667 29 762 28C763.333 27 764.625 26.2917 765.875 25.875ZM128 35L128 26L132 26.25L136 26.5C138.667 26.6667 140.917 26.9583 142.75 27.375C144.583 27.7917 146 28.3333 147 29C148 29.6667 148.833 30.375 149.5 31.125C150.167 31.875 150.667 32.6667 151 33.5C151.333 34.3333 151.583 35.625 151.75 37.375C151.917 39.125 152 41.3333 152 44C152 46.6667 151.833 48.9583 151.5 50.875C151.167 52.7917 150.667 54.3333 150 55.5C149.333 56.6667 148.5 57.6667 147.5 58.5C146.5 59.3333 145.333 60 144 60.5C142.667 61 141.167 61.375 139.5 61.625C137.833 61.875 136 62 134 62L131 62L128 62L128 53L128 44L128 35ZM503 50.25L503 27L505.75 27L508.5 27C510.333 27 512.042 27.1667 513.625 27.5C515.208 27.8333 516.667 28.3333 518 29C519.333 29.6667 520.542 30.5833 521.625 31.75C522.708 32.9167 523.667 34.3333 524.5 36C525.333 37.6667 526.042 39.5833 526.625 41.75C527.208 43.9167 527.667 46.3333 528 49C528.333 51.6667 528.583 54.8333 528.75 58.5C528.917 62.1667 529 66.3333 529 71C529 75.6667 528.875 80.0833 528.625 84.25C528.375 88.4167 528 92.3333 527.5 96C527 99.6667 526.375 102.833 525.625 105.5C524.875 108.167 524 110.333 523 112C522 113.667 520.917 115.042 519.75 116.125C518.583 117.208 517.333 118 516 118.5C514.667 119 513.292 119.375 511.875 119.625C510.458 119.875 509 120 507.5 120L505.25 120L503 120L503 96.75L503 73.5L503 50.25ZM534 170.5C532 171 530.083 171.625 528.25 172.375C526.417 173.125 524.667 174 523 175C521.333 176 519.583 177.458 517.75 179.375C515.917 181.292 514 183.667 512 186.5C510 189.333 508.25 192.5 506.75 196C505.25 199.5 504 203.333 503 207.5C502 211.667 501.25 216.625 500.75 222.375C500.25 228.125 500 234.667 500 242C500 249.333 500.25 255.917 500.75 261.75C501.25 267.583 502 272.667 503 277C504 281.333 505 285.042 506 288.125C507 291.208 508 293.667 509 295.5C510 297.333 511.125 299.083 512.375 300.75C513.625 302.417 515 304 516.5 305.5C518 307 519.792 308.375 521.875 309.625C523.958 310.875 526.333 312 529 313C531.667 314 534.5 314.75 537.5 315.25C540.5 315.75 543.667 316 547 316C550.333 316 553.667 315.667 557 315C560.333 314.333 563.667 313.333 567 312C570.333 310.667 573.292 309.083 575.875 307.25C578.458 305.417 580.667 303.333 582.5 301C584.333 298.667 586 295.875 587.5 292.625C589 289.375 590.333 285.667 591.5 281.5C592.667 277.333 593.583 272.333 594.25 266.5C594.917 260.667 595.333 254 595.5 246.5C595.667 239 595.542 232.208 595.125 226.125C594.708 220.042 594 214.667 593 210C592 205.333 590.75 201.083 589.25 197.25C587.75 193.417 586 190 584 187C582 184 579.833 181.417 577.5 179.25C575.167 177.083 572.667 175.333 570 174C567.333 172.667 564.417 171.625 561.25 170.875C558.083 170.125 554.667 169.667 551 169.5C547.333 169.333 544.083 169.333 541.25 169.5C538.417 169.667 536 170 534 170.5ZM751.5 172C748.333 173 745.542 174.167 743.125 175.5C740.708 176.833 738.667 178.333 737 180C735.333 181.667 733.833 183.583 732.5 185.75C731.167 187.917 730 190.333 729 193C728 195.667 727.25 198.333 726.75 201C726.25 203.667 726 206.333 726 209C726 211.667 726.167 214.208 726.5 216.625C726.833 219.042 727.333 221.333 728 223.5C728.667 225.667 729.5 227.708 730.5 229.625C731.5 231.542 732.667 233.333 734 235C735.333 236.667 737.625 238.667 740.875 241C744.125 243.333 748.333 246 753.5 249C758.667 252 762.958 254.625 766.375 256.875C769.792 259.125 772.333 261 774 262.5C775.667 264 777.042 265.5 778.125 267C779.208 268.5 780 270 780.5 271.5C781 273 781.333 274.5 781.5 276C781.667 277.5 781.667 279 781.5 280.5C781.333 282 780.917 283.417 780.25 284.75C779.583 286.083 778.667 287.333 777.5 288.5C776.333 289.667 775.042 290.542 773.625 291.125C772.208 291.708 770.667 292 769 292C767.333 292 765.792 291.708 764.375 291.125C762.958 290.542 761.667 289.667 760.5 288.5C759.333 287.333 758.375 285.958 757.625 284.375C756.875 282.792 756.333 281 756 279C755.667 277 754.083 275.5 751.25 274.5C748.417 273.5 744.333 273 739 273L731 273L723 273L723 274.75L723 276.5C723 277.667 723.208 279.25 723.625 281.25C724.042 283.25 724.667 285.667 725.5 288.5C726.333 291.333 727.542 294.042 729.125 296.625C730.708 299.208 732.667 301.667 735 304C737.333 306.333 739.75 308.292 742.25 309.875C744.75 311.458 747.333 312.667 750 313.5C752.667 314.333 755.542 314.958 758.625 315.375C761.708 315.792 765 316 768.5 316C772 316 775.417 315.708 778.75 315.125C782.083 314.542 785.333 313.667 788.5 312.5C791.667 311.333 794.458 310.042 796.875 308.625C799.292 307.208 801.333 305.667 803 304C804.667 302.333 806.167 300.375 807.5 298.125C808.833 295.875 810 293.333 811 290.5C812 287.667 812.75 284.833 813.25 282C813.75 279.167 814 276.333 814 273.5C814 270.667 813.833 268 813.5 265.5C813.167 263 812.667 260.667 812 258.5C811.333 256.333 810.375 254.167 809.125 252C807.875 249.833 806.333 247.667 804.5 245.5C802.667 243.333 800.667 241.292 798.5 239.375C796.333 237.458 794 235.667 791.5 234C789 232.333 786.542 230.833 784.125 229.5C781.708 228.167 779.333 227 777 226C774.667 225 772.5 223.917 770.5 222.75C768.5 221.583 766.667 220.333 765 219C763.333 217.667 762 216.042 761 214.125C760 212.208 759.333 210 759 207.5C758.667 205 758.667 202.833 759 201C759.333 199.167 760 197.667 761 196.5C762 195.333 763.125 194.458 764.375 193.875C765.625 193.292 767 193 768.5 193C770 193 771.375 193.292 772.625 193.875C773.875 194.458 775 195.333 776 196.5C777 197.667 777.792 199 778.375 200.5C778.958 202 779.333 203.667 779.5 205.5C779.667 207.333 781.125 208.708 783.875 209.625C786.625 210.542 790.667 211 796 211L804 211L812 211L811.75 208.5L811.5 206C811.333 204.333 811.042 202.542 810.625 200.625C810.208 198.708 809.667 196.667 809 194.5C808.333 192.333 807.417 190.208 806.25 188.125C805.083 186.042 803.667 184 802 182C800.333 180 798.458 178.25 796.375 176.75C794.292 175.25 792 174 789.5 173C787 172 784.25 171.208 781.25 170.625C778.25 170.042 775 169.667 771.5 169.5C768 169.333 764.583 169.458 761.25 169.875C757.917 170.292 754.667 171 751.5 172ZM2 243L2 278.5L2 314L20.5 314L39 314C51.3333 314 60.7083 312.875 67.125 310.625C73.5417 308.375 77 305 77.5 300.5L78.25 293.75L79 287L67.75 287L56.5 287L45.25 287L34 287L34 258.25L34 229.5L34 200.75L34 172L26 172L18 172L10 172L2 172L2 207.5L2 243ZM95 243L95 278.5L95 314L103 314L111 314L119 314L127 314L127 278.5L127 243L127 207.5L127 172L119 172L111 172L103 172L95 172L95 207.5L95 243ZM152 243L152 278.5L152 314L159 314L166 314L173 314L180 314L179.75 285.25L179.5 256.5L179.25 227.75L179 199L179.5 199.5L180 200C180.333 200.333 181.167 205.292 182.5 214.875C183.833 224.458 185.667 238.667 188 257.5C190.333 276.333 193.167 290.458 196.5 299.875C199.833 309.292 203.667 314 208 314C212.333 314 215.625 313.917 217.875 313.75C220.125 313.583 221.333 313.333 221.5 313C221.667 312.667 222.458 307.708 223.875 298.125C225.292 288.542 227.333 274.333 230 255.5L234 227.25L238 199L238 227.75L238 256.5L238 285.25L238 314L245.5 314L253 314L260.5 314L268 314L268.25 278.5L268.5 243L268.75 207.5L269 172L257.5 172L246 172C238.333 172 232.042 175.542 227.125 182.625C222.208 189.708 218.667 200.333 216.5 214.5L213.25 235.75L210 257L207 235.75L204 214.5C202 200.333 198.583 189.708 193.75 182.625C188.917 175.542 182.667 172 175 172L163.5 172L152 172L152 207.5L152 243ZM292 242.5L292 277.75L292 313L311.25 313.25L330.5 313.5C343.333 313.667 353.083 312.667 359.75 310.5C366.417 308.333 370 305 370.5 300.5L371.25 293.75L372 287L360 287L348 287L336 287L324 287L324 278.5L324 270L324 261.5L324 253L334.75 253L345.5 253L356.25 253L367 253L367 246.5L367 240L367 233.5L367 227L356.25 227L345.5 227L334.75 227L324 227L324 219.75L324 212.5L324 205.25L324 198L335.25 198L346.5 198L357.75 198L369 198L369 191.5L369 185L369 178.5L369 172L349.75 172L330.5 172L311.25 172L292 172L292 207.25L292 242.5ZM388 243L388 278.5L388 314L396.25 313.75L404.5 313.5C410 313.333 414.125 310.708 416.875 305.625C419.625 300.542 421 293 421 283L421 268L421 253L427.25 253L433.5 253L439.75 253L446 253L446 268.25L446 283.5L446 298.75L446 314L454 314L462 314L470 314L478 314L478 278.5L478 243L478 207.5L478 172L470 172L462 172L454 172L446 172L446 185.25L446 198.5L446 211.75L446 225L439.75 225L433.5 225L427.25 225L421 225L421 211.75L421 198.5L421 185.25L421 172L412.75 172L404.5 172L396.25 172L388 172L388 207.5L388 243ZM616 226.5C616 244.667 616.25 259.042 616.75 269.625C617.25 280.208 618 287 619 290C620 293 621.125 295.667 622.375 298C623.625 300.333 625 302.333 626.5 304C628 305.667 629.917 307.208 632.25 308.625C634.583 310.042 637.333 311.333 640.5 312.5C643.667 313.667 646.958 314.542 650.375 315.125C653.792 315.708 657.333 316 661 316C664.667 316 668.167 315.75 671.5 315.25C674.833 314.75 678 314 681 313C684 312 686.75 310.75 689.25 309.25C691.75 307.75 694 306 696 304C698 302 699.708 299.875 701.125 297.625C702.542 295.375 703.667 293 704.5 290.5C705.333 288 706 281.5 706.5 271C707 260.5 707.333 246 707.5 227.5L707.75 199.75L708 172L699.75 172L691.5 172L683.25 172L675 172L675 199L675 226C675 244 674.875 257.792 674.625 267.375C674.375 276.958 674 282.333 673.5 283.5C673 284.667 672.375 285.708 671.625 286.625C670.875 287.542 670 288.333 669 289C668 289.667 666.75 290.083 665.25 290.25C663.75 290.417 662 290.333 660 290C658 289.667 656.292 289.125 654.875 288.375C653.458 287.625 652.333 286.667 651.5 285.5C650.667 284.333 650 283.208 649.5 282.125C649 281.042 648.667 280 648.5 279C648.333 278 648.208 272.917 648.125 263.75C648.042 254.583 648 241.333 648 224L648 198L648 172L640 172L632 172L624 172L616 172L616 199.25L616 226.5ZM833 242.5L833 277.75L833 313L852.25 313.25L871.5 313.5C884.333 313.667 894.125 312.667 900.875 310.5C907.625 308.333 911.333 305 912 300.5L913 293.75L914 287L901.75 287L889.5 287L877.25 287L865 287L865 278.5L865 270L865 261.5L865 253L875.75 253L886.5 253L897.25 253L908 253L908 246.5L908 240L908 233.5L908 227L897.25 227L886.5 227L875.75 227L865 227L865 219.75L865 212.5L865 205.25L865 198L876.25 198L887.5 198L898.75 198L910 198L910 191.5L910 185L910 178.5L910 172L890.75 172L871.5 172L852.25 172L833 172L833 207.25L833 242.5ZM547 194.625C548.167 194.542 549.333 194.667 550.5 195C551.667 195.333 552.708 195.75 553.625 196.25C554.542 196.75 555.333 197.333 556 198C556.667 198.667 557.333 199.875 558 201.625C558.667 203.375 559.333 205.667 560 208.5C560.667 211.333 561.125 215.875 561.375 222.125C561.625 228.375 561.667 236.333 561.5 246C561.333 255.667 561 263.458 560.5 269.375C560 275.292 559.333 279.333 558.5 281.5C557.667 283.667 556.792 285.417 555.875 286.75C554.958 288.083 554 289 553 289.5C552 290 550.875 290.292 549.625 290.375C548.375 290.458 547 290.333 545.5 290C544 289.667 542.708 289.167 541.625 288.5C540.542 287.833 539.667 287 539 286C538.333 285 537.667 283.167 537 280.5C536.333 277.833 535.667 274.333 535 270C534.333 265.667 533.917 260.375 533.75 254.125C533.583 247.875 533.667 240.667 534 232.5C534.333 224.333 534.792 217.75 535.375 212.75C535.958 207.75 536.667 204.333 537.5 202.5C538.333 200.667 539.25 199.167 540.25 198C541.25 196.833 542.333 196 543.5 195.5C544.667 195 545.833 194.708 547 194.625Z" fill="#000000" fill-rule="nonzero" opacity="1" stroke="none"/>
</g>
</svg>
