<?xml version="1.0" encoding="UTF-8"?>
<svg xmlns="http://www.w3.org/2000/svg" xmlns:xlink="http://www.w3.org/1999/xlink" width="102pt" height="77pt" viewBox="0 0 102 77" version="1.1">
<g id="surface1">
<path style=" stroke:none;fill-rule:nonzero;fill:rgb(47.099304%,88.198853%,6.298828%);fill-opacity:1;" d="M 24.265625 26.121094 L 30.335938 26.121094 L 30.335938 32.492188 L 37.851562 32.492188 L 37.851562 36.421875 L 24.265625 36.421875 Z M 24.265625 26.121094 "/>
<path style=" stroke:none;fill-rule:nonzero;fill:rgb(47.099304%,88.198853%,6.298828%);fill-opacity:1;" d="M 48.636719 32.867188 C 50.421875 32.867188 51.234375 32.304688 51.234375 31.253906 C 51.234375 30.300781 50.4375 29.675781 48.558594 29.675781 L 46.476562 29.675781 L 46.476562 32.867188 Z M 40.574219 26.121094 L 48.277344 26.121094 C 54.457031 26.121094 57.167969 27.921875 57.167969 31.253906 C 57.167969 34.730469 54.601562 36.421875 49.011719 36.421875 L 40.574219 36.421875 Z M 40.574219 26.121094 "/>
<path style=" stroke:none;fill-rule:nonzero;fill:rgb(47.099304%,88.198853%,6.298828%);fill-opacity:1;" d="M 60.066406 26.121094 L 68.234375 26.121094 L 72.867188 30.519531 L 72.898438 30.519531 L 72.898438 26.121094 L 77.734375 26.121094 L 77.734375 36.421875 L 70.253906 36.421875 L 64.933594 31.347656 L 64.917969 31.347656 L 64.917969 36.421875 L 60.066406 36.421875 Z M 60.066406 26.121094 "/>
<path style=" stroke:none;fill-rule:nonzero;fill:rgb(47.099304%,88.198853%,6.298828%);fill-opacity:1;" d="M 24.265625 40.578125 L 38.5 40.578125 L 38.5 44.09375 L 30.375 44.09375 L 30.375 45.050781 L 35.9375 45.050781 L 35.9375 46.753906 L 30.375 46.753906 L 30.375 47.726562 L 38.710938 47.726562 L 38.710938 51.242188 L 24.265625 51.242188 Z M 24.265625 40.578125 "/>
<path style=" stroke:none;fill-rule:nonzero;fill:rgb(47.099304%,88.198853%,6.298828%);fill-opacity:1;" d="M 41.886719 47.484375 L 47.171875 47.484375 L 47.171875 45.78125 L 43.71875 45.78125 L 43.71875 42.84375 L 45.875 42.796875 C 47.738281 42.75 48.371094 42.261719 48.644531 40.578125 L 53.460938 40.578125 L 53.460938 47.484375 L 57.546875 47.484375 L 57.546875 51.242188 L 41.886719 51.242188 Z M 41.886719 47.484375 "/>
<path style=" stroke:none;fill-rule:nonzero;fill:rgb(47.099304%,88.198853%,6.298828%);fill-opacity:1;" d="M 69.304688 45.992188 L 69.304688 43.65625 L 69.289062 43.65625 L 65.332031 45.960938 L 65.332031 45.992188 Z M 69.304688 49.734375 L 60.339844 49.734375 L 60.339844 45.859375 L 69.613281 40.578125 L 75.613281 40.578125 L 75.613281 45.992188 L 77.734375 45.992188 L 77.734375 49.734375 L 75.613281 49.734375 L 75.613281 51.246094 L 69.304688 51.246094 Z M 69.304688 49.734375 "/>
<path style=" stroke:none;fill-rule:nonzero;fill:rgb(47.099304%,88.198853%,6.298828%);fill-opacity:1;" d="M 10.90625 65 L 91.089844 65 L 91.089844 12 L 10.90625 12 Z M 94.886719 68.796875 L 7.113281 68.796875 L 7.113281 8.203125 L 94.886719 8.203125 Z M 94.886719 68.796875 "/>
</g>
</svg>
